# xmcd
#
# Track frame offsets:
#	150
#	14718
#	28735
#	40028
#	50973
#	64539
#	78080
#	96524
#	111577
#	127952
#	143167
#	161830
#	172773
#	183266
#	200984
#
# Disc length: 2827 seconds
#
# Revision: 1
# Processed by: cddbd v1.5.1PL0 Copyright (c) Steve Scherf et al.
# Submitted via: audiograbber 1.82.02
#
DISCID=d60b090f
DTITLE=Various Artist - Nashville Sound 4016 Country Hits Vol 16
DYEAR=1900
DGENRE=Karaoke
TTITLE0=Merle Haggard - Okie from Muskogee
TTITLE1=Merle Haggard - Workin' man blues
TTITLE2=Tom Jones - Green, green grass of home
TTITLE3=Buck Owens - I've got a tiger by the tail
TTITLE4=Waylon Jennings - I'm a ramblin' man
TTITLE5=Patsy Cline - Only you
TTITLE6=Reba McEntire - Somebody should leave
TTITLE7=Ronnie Milsap - Don't you ever get tired of hurting me
TTITLE8=Randy Travis - He walked on water
TTITLE9=Shenandoah - Next to you, next to me
TTITLE10=Pam Tillis - Maybe it was Memphis
TTITLE11=Eddy Arnold - Welcome to my world
TTITLE12=Roger Miller - Chug-a-lug
TTITLE13=Kathy Mattea - Walk the way the wind blows
TTITLE14=Standard - All of me
EXTD=
EXTT0=
EXTT1=
EXTT2=
EXTT3=
EXTT4=
EXTT5=
EXTT6=
EXTT7=
EXTT8=
EXTT9=
EXTT10=
EXTT11=
EXTT12=
EXTT13=
EXTT14=
PLAYORDER=
